<svg width="30" height="30" viewBox="0 0 30 30" fill="none" xmlns="http://www.w3.org/2000/svg">
<g id="call-icon">
<g id="mic icon">
<path fill-rule="evenodd" clip-rule="evenodd" d="M11.2566 6.66213C12.2494 5.7861 13.596 5.29395 15.0001 5.29395C16.4042 5.29395 17.7507 5.7861 18.7436 6.66213C19.7364 7.53817 20.2942 8.72633 20.2942 9.96523V15.6227C20.2942 16.8616 19.7364 18.0497 18.7436 18.9258C17.7507 19.8018 16.4042 20.2939 15.0001 20.2939C13.596 20.2939 12.2494 19.8018 11.2566 18.9258C10.2637 18.0497 9.70595 16.8616 9.70595 15.6227V9.96523C9.70595 8.72633 10.2637 7.53817 11.2566 6.66213Z" fill="#1D1D1B"/>
<path d="M24.706 15.441C24.706 14.71 24.1134 14.1175 23.3824 14.1175C22.6515 14.1175 22.0589 14.71 22.0589 15.441C22.0589 17.3131 21.3152 19.1086 19.9914 20.4323C18.6676 21.7561 16.8722 22.4998 15.0001 22.4998C13.128 22.4998 11.3325 21.7561 10.0087 20.4323C8.68494 19.1086 7.94125 17.3131 7.94125 15.441C7.94125 14.71 7.34868 14.1175 6.61772 14.1175C5.88675 14.1175 5.29419 14.71 5.29419 15.441C5.29419 18.0152 6.31677 20.4839 8.13698 22.3041C9.54084 23.708 11.0358 24.5836 13.2567 24.9891C14.3311 25.1852 14.9658 25.2081 16.0515 25.0898C18.5535 24.8171 20.2925 23.8748 21.8632 22.3041C23.6834 20.4839 24.706 18.0152 24.706 15.441Z" fill="#1D1D1B"/>
</g>
</g>
</svg>
