<svg width="30" height="30" viewBox="0 0 30 30" fill="none" xmlns="http://www.w3.org/2000/svg">
<g id="call-icon">
<path id="Subtract" fill-rule="evenodd" clip-rule="evenodd" d="M8.82341 5.29419C5.89955 5.29419 3.5293 7.66445 3.5293 10.5883V22.9412C3.5293 23.4286 3.92434 23.8236 4.41165 23.8236H21.1764C24.1002 23.8236 26.4705 21.4533 26.4705 18.5295V10.5883C26.4705 7.66445 24.1002 5.29419 21.1764 5.29419H8.82341ZM11.6543 14.7798C11.6543 13.9879 11.0123 13.346 10.2205 13.346C9.42858 13.346 8.78664 13.9879 8.78664 14.7798C8.78664 15.5717 9.42858 16.2136 10.2205 16.2136C11.0123 16.2136 11.6543 15.5717 11.6543 14.7798ZM16.4337 14.7798C16.4337 13.9879 15.7918 13.346 14.9999 13.346C14.208 13.346 13.566 13.9879 13.566 14.7798C13.566 15.5717 14.208 16.2136 14.9999 16.2136C15.7918 16.2136 16.4337 15.5717 16.4337 14.7798ZM21.2131 14.7798C21.2131 13.9879 20.5712 13.346 19.7793 13.346C18.9874 13.346 18.3455 13.9879 18.3455 14.7798C18.3455 15.5717 18.9874 16.2136 19.7793 16.2136C20.5712 16.2136 21.2131 15.5717 21.2131 14.7798Z" fill="#181B1D"/>
</g>
</svg>
