<svg width="26" height="11" viewBox="0 0 26 11" fill="none" xmlns="http://www.w3.org/2000/svg">
<g id="Group">
<path id="Vector" d="M25.4364 7.24139L25.1889 8.53764C24.9589 9.75139 23.8239 10.5664 22.5389 10.4426L19.9801 10.1951C18.8664 10.0876 17.9164 9.29514 17.6326 8.23764L16.8439 5.29389C15.6751 4.81514 14.3876 4.59639 12.9814 4.63639C11.627 4.66592 10.2923 4.96685 9.05637 5.52139L8.56637 8.27764C8.38137 9.32264 7.52012 10.1014 6.42887 10.2114L3.88512 10.4664C2.61512 10.5939 1.39887 9.78639 1.03887 8.57889L0.65137 7.28139C0.26637 5.99264 0.61012 4.63514 1.55262 3.71889C3.77887 1.55639 7.49012 0.471394 12.6864 0.463894C17.8914 0.457644 21.7176 1.53514 24.1676 3.69889C25.1989 4.60889 25.6801 5.95639 25.4364 7.24139Z" fill="white"/>
</g>
</svg>
