<svg width="34" height="34" viewBox="0 0 34 34" fill="none" xmlns="http://www.w3.org/2000/svg">
<g id="icon/send">
<path id="Vector" d="M7.64984 27.5186C7.17762 27.7075 6.729 27.6659 6.304 27.3939C5.879 27.1229 5.6665 26.7276 5.6665 26.2082V20.9311C5.6665 20.6005 5.76095 20.3054 5.94984 20.0457C6.13873 19.786 6.39845 19.6207 6.729 19.5499L16.9998 16.9999L6.729 14.4499C6.39845 14.379 6.13873 14.2137 5.94984 13.954C5.76095 13.6943 5.6665 13.3992 5.6665 13.0686V7.79152C5.6665 7.27208 5.879 6.87636 6.304 6.60436C6.729 6.3333 7.17762 6.29222 7.64984 6.4811L28.0498 15.6894C28.6401 15.9492 28.9353 16.386 28.9353 16.9999C28.9353 17.6137 28.6401 18.0505 28.0498 18.3103L7.64984 27.5186Z" fill="#2C68FA"/>
</g>
</svg>
