<svg width="30" height="30" viewBox="0 0 30 30" fill="none" xmlns="http://www.w3.org/2000/svg">
<g id="call-icon">
<path id="Union" fill-rule="evenodd" clip-rule="evenodd" d="M2.64697 11.0586C2.64697 8.84945 4.43783 7.05859 6.64697 7.05859H17.1764C19.3855 7.05859 21.1764 8.84945 21.1764 11.0586V18.9409C21.1764 21.1501 19.3855 22.9409 17.1764 22.9409H6.64697C4.43783 22.9409 2.64697 21.1501 2.64697 18.9409V11.0586ZM5.29403 11.0292C5.29403 10.2982 5.8866 9.70565 6.61756 9.70565C7.34853 9.70565 7.94109 10.2982 7.94109 11.0292C7.94109 11.7601 7.34853 12.3527 6.61756 12.3527C5.8866 12.3527 5.29403 11.7601 5.29403 11.0292ZM25.147 9.70565C23.9287 9.70565 22.9411 10.6933 22.9411 11.9115V18.088C22.9411 19.3063 23.9287 20.2939 25.147 20.2939C26.3652 20.2939 27.3529 19.3063 27.3529 18.088V11.9115C27.3529 10.6933 26.3652 9.70565 25.147 9.70565Z" fill="#1D1D1B"/>
</g>
</svg>
